<svg xmlns="http://www.w3.org/2000/svg" viewBox="0 0 800 600"><defs><linearGradient id="g" x1="0" x2="1"><stop stop-color="#eadabc"/><stop offset="1" stop-color="#cdb384"/></linearGradient></defs><rect width="800" height="600" fill="url(#g)"/><g fill="none" stroke="#7a5a2e" opacity=".33"><path d="M35 420 Q170 360 300 410 T560 390 T820 410"/><path d="M0 465 Q160 410 320 460 T640 440 T820 455"/><circle cx="590" cy="160" r="105"/><circle cx="590" cy="160" r="72"/><path d="M112 135h300M92 155h360M520 245l160-170M508 238l208-58"/></g><g fill="#6b4a22" opacity=".42"><path d="M60 390h580v24H60z"/><path d="M105 315h74v75h-74zM205 275h96v115h-96zM335 330h112v60H335zM480 300h128v90H480z"/><path d="M250 210h12v65h-12zM244 210h24l-12-36zM540 225h10v75h-10zM534 225h22l-11-40z"/></g><g stroke="#7a5a2e" stroke-width="3" fill="none" opacity=".45"><path d="M360 390l85-93 70 93"/><path d="M422 322h70M444 299l-8 91M490 318l7 72"/></g><g font-family="serif" fill="#6b4a22" opacity=".55"><text x="480" y="510" font-size="54">侨 · 海 · 家</text><text x="490" y="548" font-size="18">DIASPORA · ARCHIVES · MEMORY</text></g></svg>